# xmcd
#
# Track frame offsets: 
#        150
#        27062
#        48157
#        71145
#        88320
#        109312
#        127902
#        148627
#        172195
#        198212
#        214455
#        232837
#
# Disc length: 3383 seconds
#
# Revision: 0
# Processed by: cddbd v1.5PL3 Copyright (c) Steve Scherf et al.
# Submitted via: ExactAudioCopy v0.95a4
#
DISCID=ad0d350c
DTITLE=Cassandra Vasik - Different
DYEAR=2000
DGENRE=Country
TTITLE0=Dirty Water
TTITLE1=Good Enough
TTITLE2=Digging The Hole
TTITLE3=Sanctuary
TTITLE4=Happy
TTITLE5=I Remember You
TTITLE6=Anything You Want
TTITLE7=Going Back Home
TTITLE8=The Well
TTITLE9=Different
TTITLE10=You Make It Go
TTITLE11=Don't Fit In
EXTD=
EXTT0=
EXTT1=
EXTT2=
EXTT3=
EXTT4=
EXTT5=
EXTT6=
EXTT7=
EXTT8=
EXTT9=
EXTT10=
EXTT11=
PLAYORDER=
